<?xml version="1.0" encoding="utf-8" standalone="no"?>
<!DOCTYPE svg PUBLIC "-//W3C//DTD SVG 1.1//EN"
  "http://www.w3.org/Graphics/SVG/1.1/DTD/svg11.dtd">
<svg xmlns:xlink="http://www.w3.org/1999/xlink" width="460.8pt" height="345.6pt" viewBox="0 0 460.8 345.6" xmlns="http://www.w3.org/2000/svg" version="1.1">
 <metadata>
  <rdf:RDF xmlns:dc="http://purl.org/dc/elements/1.1/" xmlns:cc="http://creativecommons.org/ns#" xmlns:rdf="http://www.w3.org/1999/02/22-rdf-syntax-ns#">
   <cc:Work>
    <dc:type rdf:resource="http://purl.org/dc/dcmitype/StillImage"/>
    <dc:date>2023-06-16T22:57:18.819920</dc:date>
    <dc:format>image/svg+xml</dc:format>
    <dc:creator>
     <cc:Agent>
      <dc:title>Matplotlib v3.7.1, https://matplotlib.org/</dc:title>
     </cc:Agent>
    </dc:creator>
   </cc:Work>
  </rdf:RDF>
 </metadata>
 <defs>
  <style type="text/css">*{stroke-linejoin: round; stroke-linecap: butt}</style>
 </defs>
 <g id="figure_1">
  <g id="patch_1">
   <path d="M 0 345.6 
L 460.8 345.6 
L 460.8 0 
L 0 0 
z
" style="fill: #ffffff"/>
  </g>
  <g id="axes_1">
   <g id="patch_2">
    <path d="M 69.606 294.996375 
L 445.8984 294.996375 
L 445.8984 12.96 
L 69.606 12.96 
z
" style="fill: #ffffff"/>
   </g>
   <g id="matplotlib.axis_1">
    <g id="xtick_1">
     <g id="line2d_1">
      <path d="M 86.632436 294.996375 
L 86.632436 12.96 
" clip-path="url(#p11c27b318b)" style="fill: none; stroke: #cccccc; stroke-opacity: 0.2; stroke-linecap: round"/>
     </g>
     <g id="text_1">
      <!-- 0 -->
      <g style="fill: #262626" transform="translate(82.628561 314.803625) scale(0.144 -0.144)">
       <defs>
        <path id="ArialMT-30" d="M 266 2259 
Q 266 3072 433 3567 
Q 600 4063 929 4331 
Q 1259 4600 1759 4600 
Q 2128 4600 2406 4451 
Q 2684 4303 2865 4023 
Q 3047 3744 3150 3342 
Q 3253 2941 3253 2259 
Q 3253 1453 3087 958 
Q 2922 463 2592 192 
Q 2263 -78 1759 -78 
Q 1097 -78 719 397 
Q 266 969 266 2259 
z
M 844 2259 
Q 844 1131 1108 757 
Q 1372 384 1759 384 
Q 2147 384 2411 759 
Q 2675 1134 2675 2259 
Q 2675 3391 2411 3762 
Q 2147 4134 1753 4134 
Q 1366 4134 1134 3806 
Q 844 3388 844 2259 
z
" transform="scale(0.015625)"/>
       </defs>
       <use xlink:href="#ArialMT-30"/>
      </g>
     </g>
    </g>
    <g id="xtick_2">
     <g id="line2d_2">
      <path d="M 135.234959 294.996375 
L 135.234959 12.96 
" clip-path="url(#p11c27b318b)" style="fill: none; stroke: #cccccc; stroke-opacity: 0.2; stroke-linecap: round"/>
     </g>
     <g id="text_2">
      <!-- 2500 -->
      <g style="fill: #262626" transform="translate(119.219459 314.803625) scale(0.144 -0.144)">
       <defs>
        <path id="ArialMT-32" d="M 3222 541 
L 3222 0 
L 194 0 
Q 188 203 259 391 
Q 375 700 629 1000 
Q 884 1300 1366 1694 
Q 2113 2306 2375 2664 
Q 2638 3022 2638 3341 
Q 2638 3675 2398 3904 
Q 2159 4134 1775 4134 
Q 1369 4134 1125 3890 
Q 881 3647 878 3216 
L 300 3275 
Q 359 3922 746 4261 
Q 1134 4600 1788 4600 
Q 2447 4600 2831 4234 
Q 3216 3869 3216 3328 
Q 3216 3053 3103 2787 
Q 2991 2522 2730 2228 
Q 2469 1934 1863 1422 
Q 1356 997 1212 845 
Q 1069 694 975 541 
L 3222 541 
z
" transform="scale(0.015625)"/>
        <path id="ArialMT-35" d="M 266 1200 
L 856 1250 
Q 922 819 1161 601 
Q 1400 384 1738 384 
Q 2144 384 2425 690 
Q 2706 997 2706 1503 
Q 2706 1984 2436 2262 
Q 2166 2541 1728 2541 
Q 1456 2541 1237 2417 
Q 1019 2294 894 2097 
L 366 2166 
L 809 4519 
L 3088 4519 
L 3088 3981 
L 1259 3981 
L 1013 2750 
Q 1425 3038 1878 3038 
Q 2478 3038 2890 2622 
Q 3303 2206 3303 1553 
Q 3303 931 2941 478 
Q 2500 -78 1738 -78 
Q 1113 -78 717 272 
Q 322 622 266 1200 
z
" transform="scale(0.015625)"/>
       </defs>
       <use xlink:href="#ArialMT-32"/>
       <use xlink:href="#ArialMT-35" x="55.615234"/>
       <use xlink:href="#ArialMT-30" x="111.230469"/>
       <use xlink:href="#ArialMT-30" x="166.845703"/>
      </g>
     </g>
    </g>
    <g id="xtick_3">
     <g id="line2d_3">
      <path d="M 183.837482 294.996375 
L 183.837482 12.96 
" clip-path="url(#p11c27b318b)" style="fill: none; stroke: #cccccc; stroke-opacity: 0.2; stroke-linecap: round"/>
     </g>
     <g id="text_3">
      <!-- 5000 -->
      <g style="fill: #262626" transform="translate(167.821982 314.803625) scale(0.144 -0.144)">
       <use xlink:href="#ArialMT-35"/>
       <use xlink:href="#ArialMT-30" x="55.615234"/>
       <use xlink:href="#ArialMT-30" x="111.230469"/>
       <use xlink:href="#ArialMT-30" x="166.845703"/>
      </g>
     </g>
    </g>
    <g id="xtick_4">
     <g id="line2d_4">
      <path d="M 232.440006 294.996375 
L 232.440006 12.96 
" clip-path="url(#p11c27b318b)" style="fill: none; stroke: #cccccc; stroke-opacity: 0.2; stroke-linecap: round"/>
     </g>
     <g id="text_4">
      <!-- 7500 -->
      <g style="fill: #262626" transform="translate(216.424506 314.803625) scale(0.144 -0.144)">
       <defs>
        <path id="ArialMT-37" d="M 303 3981 
L 303 4522 
L 3269 4522 
L 3269 4084 
Q 2831 3619 2401 2847 
Q 1972 2075 1738 1259 
Q 1569 684 1522 0 
L 944 0 
Q 953 541 1156 1306 
Q 1359 2072 1739 2783 
Q 2119 3494 2547 3981 
L 303 3981 
z
" transform="scale(0.015625)"/>
       </defs>
       <use xlink:href="#ArialMT-37"/>
       <use xlink:href="#ArialMT-35" x="55.615234"/>
       <use xlink:href="#ArialMT-30" x="111.230469"/>
       <use xlink:href="#ArialMT-30" x="166.845703"/>
      </g>
     </g>
    </g>
    <g id="xtick_5">
     <g id="line2d_5">
      <path d="M 281.042529 294.996375 
L 281.042529 12.96 
" clip-path="url(#p11c27b318b)" style="fill: none; stroke: #cccccc; stroke-opacity: 0.2; stroke-linecap: round"/>
     </g>
     <g id="text_5">
      <!-- 10000 -->
      <g style="fill: #262626" transform="translate(261.023154 314.803625) scale(0.144 -0.144)">
       <defs>
        <path id="ArialMT-31" d="M 2384 0 
L 1822 0 
L 1822 3584 
Q 1619 3391 1289 3197 
Q 959 3003 697 2906 
L 697 3450 
Q 1169 3672 1522 3987 
Q 1875 4303 2022 4600 
L 2384 4600 
L 2384 0 
z
" transform="scale(0.015625)"/>
       </defs>
       <use xlink:href="#ArialMT-31"/>
       <use xlink:href="#ArialMT-30" x="55.615234"/>
       <use xlink:href="#ArialMT-30" x="111.230469"/>
       <use xlink:href="#ArialMT-30" x="166.845703"/>
       <use xlink:href="#ArialMT-30" x="222.460938"/>
      </g>
     </g>
    </g>
    <g id="xtick_6">
     <g id="line2d_6">
      <path d="M 329.645052 294.996375 
L 329.645052 12.96 
" clip-path="url(#p11c27b318b)" style="fill: none; stroke: #cccccc; stroke-opacity: 0.2; stroke-linecap: round"/>
     </g>
     <g id="text_6">
      <!-- 12500 -->
      <g style="fill: #262626" transform="translate(309.625677 314.803625) scale(0.144 -0.144)">
       <use xlink:href="#ArialMT-31"/>
       <use xlink:href="#ArialMT-32" x="55.615234"/>
       <use xlink:href="#ArialMT-35" x="111.230469"/>
       <use xlink:href="#ArialMT-30" x="166.845703"/>
       <use xlink:href="#ArialMT-30" x="222.460938"/>
      </g>
     </g>
    </g>
    <g id="xtick_7">
     <g id="line2d_7">
      <path d="M 378.247576 294.996375 
L 378.247576 12.96 
" clip-path="url(#p11c27b318b)" style="fill: none; stroke: #cccccc; stroke-opacity: 0.2; stroke-linecap: round"/>
     </g>
     <g id="text_7">
      <!-- 15000 -->
      <g style="fill: #262626" transform="translate(358.228201 314.803625) scale(0.144 -0.144)">
       <use xlink:href="#ArialMT-31"/>
       <use xlink:href="#ArialMT-35" x="55.615234"/>
       <use xlink:href="#ArialMT-30" x="111.230469"/>
       <use xlink:href="#ArialMT-30" x="166.845703"/>
       <use xlink:href="#ArialMT-30" x="222.460938"/>
      </g>
     </g>
    </g>
    <g id="xtick_8">
     <g id="line2d_8">
      <path d="M 426.850099 294.996375 
L 426.850099 12.96 
" clip-path="url(#p11c27b318b)" style="fill: none; stroke: #cccccc; stroke-opacity: 0.2; stroke-linecap: round"/>
     </g>
     <g id="text_8">
      <!-- 17500 -->
      <g style="fill: #262626" transform="translate(406.830724 314.803625) scale(0.144 -0.144)">
       <use xlink:href="#ArialMT-31"/>
       <use xlink:href="#ArialMT-37" x="55.615234"/>
       <use xlink:href="#ArialMT-35" x="111.230469"/>
       <use xlink:href="#ArialMT-30" x="166.845703"/>
       <use xlink:href="#ArialMT-30" x="222.460938"/>
      </g>
     </g>
    </g>
    <g id="text_9">
     <!-- Number of shares -->
     <g style="fill: #262626" transform="translate(210.069075 330.255) scale(0.12 -0.12)">
      <defs>
       <path id="ArialMT-4e" d="M 488 0 
L 488 4581 
L 1109 4581 
L 3516 984 
L 3516 4581 
L 4097 4581 
L 4097 0 
L 3475 0 
L 1069 3600 
L 1069 0 
L 488 0 
z
" transform="scale(0.015625)"/>
       <path id="ArialMT-75" d="M 2597 0 
L 2597 488 
Q 2209 -75 1544 -75 
Q 1250 -75 995 37 
Q 741 150 617 320 
Q 494 491 444 738 
Q 409 903 409 1263 
L 409 3319 
L 972 3319 
L 972 1478 
Q 972 1038 1006 884 
Q 1059 663 1231 536 
Q 1403 409 1656 409 
Q 1909 409 2131 539 
Q 2353 669 2445 892 
Q 2538 1116 2538 1541 
L 2538 3319 
L 3100 3319 
L 3100 0 
L 2597 0 
z
" transform="scale(0.015625)"/>
       <path id="ArialMT-6d" d="M 422 0 
L 422 3319 
L 925 3319 
L 925 2853 
Q 1081 3097 1340 3245 
Q 1600 3394 1931 3394 
Q 2300 3394 2536 3241 
Q 2772 3088 2869 2813 
Q 3263 3394 3894 3394 
Q 4388 3394 4653 3120 
Q 4919 2847 4919 2278 
L 4919 0 
L 4359 0 
L 4359 2091 
Q 4359 2428 4304 2576 
Q 4250 2725 4106 2815 
Q 3963 2906 3769 2906 
Q 3419 2906 3187 2673 
Q 2956 2441 2956 1928 
L 2956 0 
L 2394 0 
L 2394 2156 
Q 2394 2531 2256 2718 
Q 2119 2906 1806 2906 
Q 1569 2906 1367 2781 
Q 1166 2656 1075 2415 
Q 984 2175 984 1722 
L 984 0 
L 422 0 
z
" transform="scale(0.015625)"/>
       <path id="ArialMT-62" d="M 941 0 
L 419 0 
L 419 4581 
L 981 4581 
L 981 2947 
Q 1338 3394 1891 3394 
Q 2197 3394 2470 3270 
Q 2744 3147 2920 2923 
Q 3097 2700 3197 2384 
Q 3297 2069 3297 1709 
Q 3297 856 2875 390 
Q 2453 -75 1863 -75 
Q 1275 -75 941 416 
L 941 0 
z
M 934 1684 
Q 934 1088 1097 822 
Q 1363 388 1816 388 
Q 2184 388 2453 708 
Q 2722 1028 2722 1663 
Q 2722 2313 2464 2622 
Q 2206 2931 1841 2931 
Q 1472 2931 1203 2611 
Q 934 2291 934 1684 
z
" transform="scale(0.015625)"/>
       <path id="ArialMT-65" d="M 2694 1069 
L 3275 997 
Q 3138 488 2766 206 
Q 2394 -75 1816 -75 
Q 1088 -75 661 373 
Q 234 822 234 1631 
Q 234 2469 665 2931 
Q 1097 3394 1784 3394 
Q 2450 3394 2872 2941 
Q 3294 2488 3294 1666 
Q 3294 1616 3291 1516 
L 816 1516 
Q 847 969 1125 678 
Q 1403 388 1819 388 
Q 2128 388 2347 550 
Q 2566 713 2694 1069 
z
M 847 1978 
L 2700 1978 
Q 2663 2397 2488 2606 
Q 2219 2931 1791 2931 
Q 1403 2931 1139 2672 
Q 875 2413 847 1978 
z
" transform="scale(0.015625)"/>
       <path id="ArialMT-72" d="M 416 0 
L 416 3319 
L 922 3319 
L 922 2816 
Q 1116 3169 1280 3281 
Q 1444 3394 1641 3394 
Q 1925 3394 2219 3213 
L 2025 2691 
Q 1819 2813 1613 2813 
Q 1428 2813 1281 2702 
Q 1134 2591 1072 2394 
Q 978 2094 978 1738 
L 978 0 
L 416 0 
z
" transform="scale(0.015625)"/>
       <path id="ArialMT-20" transform="scale(0.015625)"/>
       <path id="ArialMT-6f" d="M 213 1659 
Q 213 2581 725 3025 
Q 1153 3394 1769 3394 
Q 2453 3394 2887 2945 
Q 3322 2497 3322 1706 
Q 3322 1066 3130 698 
Q 2938 331 2570 128 
Q 2203 -75 1769 -75 
Q 1072 -75 642 372 
Q 213 819 213 1659 
z
M 791 1659 
Q 791 1022 1069 705 
Q 1347 388 1769 388 
Q 2188 388 2466 706 
Q 2744 1025 2744 1678 
Q 2744 2294 2464 2611 
Q 2184 2928 1769 2928 
Q 1347 2928 1069 2612 
Q 791 2297 791 1659 
z
" transform="scale(0.015625)"/>
       <path id="ArialMT-66" d="M 556 0 
L 556 2881 
L 59 2881 
L 59 3319 
L 556 3319 
L 556 3672 
Q 556 4006 616 4169 
Q 697 4388 901 4523 
Q 1106 4659 1475 4659 
Q 1713 4659 2000 4603 
L 1916 4113 
Q 1741 4144 1584 4144 
Q 1328 4144 1222 4034 
Q 1116 3925 1116 3625 
L 1116 3319 
L 1763 3319 
L 1763 2881 
L 1116 2881 
L 1116 0 
L 556 0 
z
" transform="scale(0.015625)"/>
       <path id="ArialMT-73" d="M 197 991 
L 753 1078 
Q 800 744 1014 566 
Q 1228 388 1613 388 
Q 2000 388 2187 545 
Q 2375 703 2375 916 
Q 2375 1106 2209 1216 
Q 2094 1291 1634 1406 
Q 1016 1563 777 1677 
Q 538 1791 414 1992 
Q 291 2194 291 2438 
Q 291 2659 392 2848 
Q 494 3038 669 3163 
Q 800 3259 1026 3326 
Q 1253 3394 1513 3394 
Q 1903 3394 2198 3281 
Q 2494 3169 2634 2976 
Q 2775 2784 2828 2463 
L 2278 2388 
Q 2241 2644 2061 2787 
Q 1881 2931 1553 2931 
Q 1166 2931 1000 2803 
Q 834 2675 834 2503 
Q 834 2394 903 2306 
Q 972 2216 1119 2156 
Q 1203 2125 1616 2013 
Q 2213 1853 2448 1751 
Q 2684 1650 2818 1456 
Q 2953 1263 2953 975 
Q 2953 694 2789 445 
Q 2625 197 2315 61 
Q 2006 -75 1616 -75 
Q 969 -75 630 194 
Q 291 463 197 991 
z
" transform="scale(0.015625)"/>
       <path id="ArialMT-68" d="M 422 0 
L 422 4581 
L 984 4581 
L 984 2938 
Q 1378 3394 1978 3394 
Q 2347 3394 2619 3248 
Q 2891 3103 3008 2847 
Q 3125 2591 3125 2103 
L 3125 0 
L 2563 0 
L 2563 2103 
Q 2563 2525 2380 2717 
Q 2197 2909 1863 2909 
Q 1613 2909 1392 2779 
Q 1172 2650 1078 2428 
Q 984 2206 984 1816 
L 984 0 
L 422 0 
z
" transform="scale(0.015625)"/>
       <path id="ArialMT-61" d="M 2588 409 
Q 2275 144 1986 34 
Q 1697 -75 1366 -75 
Q 819 -75 525 192 
Q 231 459 231 875 
Q 231 1119 342 1320 
Q 453 1522 633 1644 
Q 813 1766 1038 1828 
Q 1203 1872 1538 1913 
Q 2219 1994 2541 2106 
Q 2544 2222 2544 2253 
Q 2544 2597 2384 2738 
Q 2169 2928 1744 2928 
Q 1347 2928 1158 2789 
Q 969 2650 878 2297 
L 328 2372 
Q 403 2725 575 2942 
Q 747 3159 1072 3276 
Q 1397 3394 1825 3394 
Q 2250 3394 2515 3294 
Q 2781 3194 2906 3042 
Q 3031 2891 3081 2659 
Q 3109 2516 3109 2141 
L 3109 1391 
Q 3109 606 3145 398 
Q 3181 191 3288 0 
L 2700 0 
Q 2613 175 2588 409 
z
M 2541 1666 
Q 2234 1541 1622 1453 
Q 1275 1403 1131 1340 
Q 988 1278 909 1158 
Q 831 1038 831 891 
Q 831 666 1001 516 
Q 1172 366 1500 366 
Q 1825 366 2078 508 
Q 2331 650 2450 897 
Q 2541 1088 2541 1459 
L 2541 1666 
z
" transform="scale(0.015625)"/>
      </defs>
      <use xlink:href="#ArialMT-4e"/>
      <use xlink:href="#ArialMT-75" x="72.216797"/>
      <use xlink:href="#ArialMT-6d" x="127.832031"/>
      <use xlink:href="#ArialMT-62" x="211.132812"/>
      <use xlink:href="#ArialMT-65" x="266.748047"/>
      <use xlink:href="#ArialMT-72" x="322.363281"/>
      <use xlink:href="#ArialMT-20" x="355.664062"/>
      <use xlink:href="#ArialMT-6f" x="383.447266"/>
      <use xlink:href="#ArialMT-66" x="439.0625"/>
      <use xlink:href="#ArialMT-20" x="466.845703"/>
      <use xlink:href="#ArialMT-73" x="494.628906"/>
      <use xlink:href="#ArialMT-68" x="544.628906"/>
      <use xlink:href="#ArialMT-61" x="600.244141"/>
      <use xlink:href="#ArialMT-72" x="655.859375"/>
      <use xlink:href="#ArialMT-65" x="689.160156"/>
      <use xlink:href="#ArialMT-73" x="744.775391"/>
     </g>
    </g>
   </g>
   <g id="matplotlib.axis_2">
    <g id="ytick_1">
     <g id="line2d_9">
      <path d="M 69.606 294.996375 
L 445.8984 294.996375 
" clip-path="url(#p11c27b318b)" style="fill: none; stroke: #cccccc; stroke-opacity: 0.2; stroke-linecap: round"/>
     </g>
     <g id="text_10">
      <!-- 0 -->
      <g style="fill: #262626" transform="translate(52.09825 300.15) scale(0.144 -0.144)">
       <use xlink:href="#ArialMT-30"/>
      </g>
     </g>
    </g>
    <g id="ytick_2">
     <g id="line2d_10">
      <path d="M 69.606 262.343072 
L 445.8984 262.343072 
" clip-path="url(#p11c27b318b)" style="fill: none; stroke: #cccccc; stroke-opacity: 0.2; stroke-linecap: round"/>
     </g>
     <g id="text_11">
      <!-- 1000 -->
      <g style="fill: #262626" transform="translate(28.075 267.496697) scale(0.144 -0.144)">
       <use xlink:href="#ArialMT-31"/>
       <use xlink:href="#ArialMT-30" x="55.615234"/>
       <use xlink:href="#ArialMT-30" x="111.230469"/>
       <use xlink:href="#ArialMT-30" x="166.845703"/>
      </g>
     </g>
    </g>
    <g id="ytick_3">
     <g id="line2d_11">
      <path d="M 69.606 229.689769 
L 445.8984 229.689769 
" clip-path="url(#p11c27b318b)" style="fill: none; stroke: #cccccc; stroke-opacity: 0.2; stroke-linecap: round"/>
     </g>
     <g id="text_12">
      <!-- 2000 -->
      <g style="fill: #262626" transform="translate(28.075 234.843394) scale(0.144 -0.144)">
       <use xlink:href="#ArialMT-32"/>
       <use xlink:href="#ArialMT-30" x="55.615234"/>
       <use xlink:href="#ArialMT-30" x="111.230469"/>
       <use xlink:href="#ArialMT-30" x="166.845703"/>
      </g>
     </g>
    </g>
    <g id="ytick_4">
     <g id="line2d_12">
      <path d="M 69.606 197.036466 
L 445.8984 197.036466 
" clip-path="url(#p11c27b318b)" style="fill: none; stroke: #cccccc; stroke-opacity: 0.2; stroke-linecap: round"/>
     </g>
     <g id="text_13">
      <!-- 3000 -->
      <g style="fill: #262626" transform="translate(28.075 202.190091) scale(0.144 -0.144)">
       <defs>
        <path id="ArialMT-33" d="M 269 1209 
L 831 1284 
Q 928 806 1161 595 
Q 1394 384 1728 384 
Q 2125 384 2398 659 
Q 2672 934 2672 1341 
Q 2672 1728 2419 1979 
Q 2166 2231 1775 2231 
Q 1616 2231 1378 2169 
L 1441 2663 
Q 1497 2656 1531 2656 
Q 1891 2656 2178 2843 
Q 2466 3031 2466 3422 
Q 2466 3731 2256 3934 
Q 2047 4138 1716 4138 
Q 1388 4138 1169 3931 
Q 950 3725 888 3313 
L 325 3413 
Q 428 3978 793 4289 
Q 1159 4600 1703 4600 
Q 2078 4600 2393 4439 
Q 2709 4278 2876 4000 
Q 3044 3722 3044 3409 
Q 3044 3113 2884 2869 
Q 2725 2625 2413 2481 
Q 2819 2388 3044 2092 
Q 3269 1797 3269 1353 
Q 3269 753 2831 336 
Q 2394 -81 1725 -81 
Q 1122 -81 723 278 
Q 325 638 269 1209 
z
" transform="scale(0.015625)"/>
       </defs>
       <use xlink:href="#ArialMT-33"/>
       <use xlink:href="#ArialMT-30" x="55.615234"/>
       <use xlink:href="#ArialMT-30" x="111.230469"/>
       <use xlink:href="#ArialMT-30" x="166.845703"/>
      </g>
     </g>
    </g>
    <g id="ytick_5">
     <g id="line2d_13">
      <path d="M 69.606 164.383163 
L 445.8984 164.383163 
" clip-path="url(#p11c27b318b)" style="fill: none; stroke: #cccccc; stroke-opacity: 0.2; stroke-linecap: round"/>
     </g>
     <g id="text_14">
      <!-- 4000 -->
      <g style="fill: #262626" transform="translate(28.075 169.536788) scale(0.144 -0.144)">
       <defs>
        <path id="ArialMT-34" d="M 2069 0 
L 2069 1097 
L 81 1097 
L 81 1613 
L 2172 4581 
L 2631 4581 
L 2631 1613 
L 3250 1613 
L 3250 1097 
L 2631 1097 
L 2631 0 
L 2069 0 
z
M 2069 1613 
L 2069 3678 
L 634 1613 
L 2069 1613 
z
" transform="scale(0.015625)"/>
       </defs>
       <use xlink:href="#ArialMT-34"/>
       <use xlink:href="#ArialMT-30" x="55.615234"/>
       <use xlink:href="#ArialMT-30" x="111.230469"/>
       <use xlink:href="#ArialMT-30" x="166.845703"/>
      </g>
     </g>
    </g>
    <g id="ytick_6">
     <g id="line2d_14">
      <path d="M 69.606 131.729859 
L 445.8984 131.729859 
" clip-path="url(#p11c27b318b)" style="fill: none; stroke: #cccccc; stroke-opacity: 0.2; stroke-linecap: round"/>
     </g>
     <g id="text_15">
      <!-- 5000 -->
      <g style="fill: #262626" transform="translate(28.075 136.883484) scale(0.144 -0.144)">
       <use xlink:href="#ArialMT-35"/>
       <use xlink:href="#ArialMT-30" x="55.615234"/>
       <use xlink:href="#ArialMT-30" x="111.230469"/>
       <use xlink:href="#ArialMT-30" x="166.845703"/>
      </g>
     </g>
    </g>
    <g id="ytick_7">
     <g id="line2d_15">
      <path d="M 69.606 99.076556 
L 445.8984 99.076556 
" clip-path="url(#p11c27b318b)" style="fill: none; stroke: #cccccc; stroke-opacity: 0.2; stroke-linecap: round"/>
     </g>
     <g id="text_16">
      <!-- 6000 -->
      <g style="fill: #262626" transform="translate(28.075 104.230181) scale(0.144 -0.144)">
       <defs>
        <path id="ArialMT-36" d="M 3184 3459 
L 2625 3416 
Q 2550 3747 2413 3897 
Q 2184 4138 1850 4138 
Q 1581 4138 1378 3988 
Q 1113 3794 959 3422 
Q 806 3050 800 2363 
Q 1003 2672 1297 2822 
Q 1591 2972 1913 2972 
Q 2475 2972 2870 2558 
Q 3266 2144 3266 1488 
Q 3266 1056 3080 686 
Q 2894 316 2569 119 
Q 2244 -78 1831 -78 
Q 1128 -78 684 439 
Q 241 956 241 2144 
Q 241 3472 731 4075 
Q 1159 4600 1884 4600 
Q 2425 4600 2770 4297 
Q 3116 3994 3184 3459 
z
M 888 1484 
Q 888 1194 1011 928 
Q 1134 663 1356 523 
Q 1578 384 1822 384 
Q 2178 384 2434 671 
Q 2691 959 2691 1453 
Q 2691 1928 2437 2201 
Q 2184 2475 1800 2475 
Q 1419 2475 1153 2201 
Q 888 1928 888 1484 
z
" transform="scale(0.015625)"/>
       </defs>
       <use xlink:href="#ArialMT-36"/>
       <use xlink:href="#ArialMT-30" x="55.615234"/>
       <use xlink:href="#ArialMT-30" x="111.230469"/>
       <use xlink:href="#ArialMT-30" x="166.845703"/>
      </g>
     </g>
    </g>
    <g id="ytick_8">
     <g id="line2d_16">
      <path d="M 69.606 66.423253 
L 445.8984 66.423253 
" clip-path="url(#p11c27b318b)" style="fill: none; stroke: #cccccc; stroke-opacity: 0.2; stroke-linecap: round"/>
     </g>
     <g id="text_17">
      <!-- 7000 -->
      <g style="fill: #262626" transform="translate(28.075 71.576878) scale(0.144 -0.144)">
       <use xlink:href="#ArialMT-37"/>
       <use xlink:href="#ArialMT-30" x="55.615234"/>
       <use xlink:href="#ArialMT-30" x="111.230469"/>
       <use xlink:href="#ArialMT-30" x="166.845703"/>
      </g>
     </g>
    </g>
    <g id="ytick_9">
     <g id="line2d_17">
      <path d="M 69.606 33.76995 
L 445.8984 33.76995 
" clip-path="url(#p11c27b318b)" style="fill: none; stroke: #cccccc; stroke-opacity: 0.2; stroke-linecap: round"/>
     </g>
     <g id="text_18">
      <!-- 8000 -->
      <g style="fill: #262626" transform="translate(28.075 38.923575) scale(0.144 -0.144)">
       <defs>
        <path id="ArialMT-38" d="M 1131 2484 
Q 781 2613 612 2850 
Q 444 3088 444 3419 
Q 444 3919 803 4259 
Q 1163 4600 1759 4600 
Q 2359 4600 2725 4251 
Q 3091 3903 3091 3403 
Q 3091 3084 2923 2848 
Q 2756 2613 2416 2484 
Q 2838 2347 3058 2040 
Q 3278 1734 3278 1309 
Q 3278 722 2862 322 
Q 2447 -78 1769 -78 
Q 1091 -78 675 323 
Q 259 725 259 1325 
Q 259 1772 486 2073 
Q 713 2375 1131 2484 
z
M 1019 3438 
Q 1019 3113 1228 2906 
Q 1438 2700 1772 2700 
Q 2097 2700 2305 2904 
Q 2513 3109 2513 3406 
Q 2513 3716 2298 3927 
Q 2084 4138 1766 4138 
Q 1444 4138 1231 3931 
Q 1019 3725 1019 3438 
z
M 838 1322 
Q 838 1081 952 856 
Q 1066 631 1291 507 
Q 1516 384 1775 384 
Q 2178 384 2440 643 
Q 2703 903 2703 1303 
Q 2703 1709 2433 1975 
Q 2163 2241 1756 2241 
Q 1359 2241 1098 1978 
Q 838 1716 838 1322 
z
" transform="scale(0.015625)"/>
       </defs>
       <use xlink:href="#ArialMT-38"/>
       <use xlink:href="#ArialMT-30" x="55.615234"/>
       <use xlink:href="#ArialMT-30" x="111.230469"/>
       <use xlink:href="#ArialMT-30" x="166.845703"/>
      </g>
     </g>
    </g>
    <g id="text_19">
     <!-- Frequency -->
     <g style="fill: #262626" transform="translate(21.549375 182.3235) rotate(-90) scale(0.12 -0.12)">
      <defs>
       <path id="ArialMT-46" d="M 525 0 
L 525 4581 
L 3616 4581 
L 3616 4041 
L 1131 4041 
L 1131 2622 
L 3281 2622 
L 3281 2081 
L 1131 2081 
L 1131 0 
L 525 0 
z
" transform="scale(0.015625)"/>
       <path id="ArialMT-71" d="M 2538 -1272 
L 2538 353 
Q 2406 169 2170 47 
Q 1934 -75 1669 -75 
Q 1078 -75 651 397 
Q 225 869 225 1691 
Q 225 2191 398 2587 
Q 572 2984 901 3189 
Q 1231 3394 1625 3394 
Q 2241 3394 2594 2875 
L 2594 3319 
L 3100 3319 
L 3100 -1272 
L 2538 -1272 
z
M 803 1669 
Q 803 1028 1072 708 
Q 1341 388 1716 388 
Q 2075 388 2334 692 
Q 2594 997 2594 1619 
Q 2594 2281 2320 2615 
Q 2047 2950 1678 2950 
Q 1313 2950 1058 2639 
Q 803 2328 803 1669 
z
" transform="scale(0.015625)"/>
       <path id="ArialMT-6e" d="M 422 0 
L 422 3319 
L 928 3319 
L 928 2847 
Q 1294 3394 1984 3394 
Q 2284 3394 2536 3286 
Q 2788 3178 2913 3003 
Q 3038 2828 3088 2588 
Q 3119 2431 3119 2041 
L 3119 0 
L 2556 0 
L 2556 2019 
Q 2556 2363 2490 2533 
Q 2425 2703 2258 2804 
Q 2091 2906 1866 2906 
Q 1506 2906 1245 2678 
Q 984 2450 984 1813 
L 984 0 
L 422 0 
z
" transform="scale(0.015625)"/>
       <path id="ArialMT-63" d="M 2588 1216 
L 3141 1144 
Q 3050 572 2676 248 
Q 2303 -75 1759 -75 
Q 1078 -75 664 370 
Q 250 816 250 1647 
Q 250 2184 428 2587 
Q 606 2991 970 3192 
Q 1334 3394 1763 3394 
Q 2303 3394 2647 3120 
Q 2991 2847 3088 2344 
L 2541 2259 
Q 2463 2594 2264 2762 
Q 2066 2931 1784 2931 
Q 1359 2931 1093 2626 
Q 828 2322 828 1663 
Q 828 994 1084 691 
Q 1341 388 1753 388 
Q 2084 388 2306 591 
Q 2528 794 2588 1216 
z
" transform="scale(0.015625)"/>
       <path id="ArialMT-79" d="M 397 -1278 
L 334 -750 
Q 519 -800 656 -800 
Q 844 -800 956 -737 
Q 1069 -675 1141 -563 
Q 1194 -478 1313 -144 
Q 1328 -97 1363 -6 
L 103 3319 
L 709 3319 
L 1400 1397 
Q 1534 1031 1641 628 
Q 1738 1016 1872 1384 
L 2581 3319 
L 3144 3319 
L 1881 -56 
Q 1678 -603 1566 -809 
Q 1416 -1088 1222 -1217 
Q 1028 -1347 759 -1347 
Q 597 -1347 397 -1278 
z
" transform="scale(0.015625)"/>
      </defs>
      <use xlink:href="#ArialMT-46"/>
      <use xlink:href="#ArialMT-72" x="61.083984"/>
      <use xlink:href="#ArialMT-65" x="94.384766"/>
      <use xlink:href="#ArialMT-71" x="150"/>
      <use xlink:href="#ArialMT-75" x="205.615234"/>
      <use xlink:href="#ArialMT-65" x="261.230469"/>
      <use xlink:href="#ArialMT-6e" x="316.845703"/>
      <use xlink:href="#ArialMT-63" x="372.460938"/>
      <use xlink:href="#ArialMT-79" x="422.460938"/>
     </g>
    </g>
   </g>
   <g id="patch_3">
    <path d="M 86.7102 294.996375 
L 95.2623 294.996375 
L 95.2623 277.886044 
L 86.7102 277.886044 
z
" clip-path="url(#p11c27b318b)" style="fill: #481769; stroke: #ffffff; stroke-linejoin: miter"/>
   </g>
   <g id="patch_4">
    <path d="M 95.2623 294.996375 
L 103.8144 294.996375 
L 103.8144 96.398985 
L 95.2623 96.398985 
z
" clip-path="url(#p11c27b318b)" style="fill: #58c765; stroke: #ffffff; stroke-linejoin: miter"/>
   </g>
   <g id="patch_5">
    <path d="M 103.8144 294.996375 
L 112.3665 294.996375 
L 112.3665 26.390304 
L 103.8144 26.390304 
z
" clip-path="url(#p11c27b318b)" style="fill: #fde725; stroke: #ffffff; stroke-linejoin: miter"/>
   </g>
   <g id="patch_6">
    <path d="M 112.3665 294.996375 
L 120.9186 294.996375 
L 120.9186 164.350509 
L 112.3665 164.350509 
z
" clip-path="url(#p11c27b318b)" style="fill: #228d8d; stroke: #ffffff; stroke-linejoin: miter"/>
   </g>
   <g id="patch_7">
    <path d="M 120.9186 294.996375 
L 129.4707 294.996375 
L 129.4707 195.958907 
L 120.9186 195.958907 
z
" clip-path="url(#p11c27b318b)" style="fill: #2d708e; stroke: #ffffff; stroke-linejoin: miter"/>
   </g>
   <g id="patch_8">
    <path d="M 129.4707 294.996375 
L 138.0228 294.996375 
L 138.0228 245.591927 
L 129.4707 245.591927 
z
" clip-path="url(#p11c27b318b)" style="fill: #433e85; stroke: #ffffff; stroke-linejoin: miter"/>
   </g>
   <g id="patch_9">
    <path d="M 138.0228 294.996375 
L 146.5749 294.996375 
L 146.5749 255.910371 
L 138.0228 255.910371 
z
" clip-path="url(#p11c27b318b)" style="fill: #46327e; stroke: #ffffff; stroke-linejoin: miter"/>
   </g>
   <g id="patch_10">
    <path d="M 146.5749 294.996375 
L 155.127 294.996375 
L 155.127 259.436928 
L 146.5749 259.436928 
z
" clip-path="url(#p11c27b318b)" style="fill: #472e7c; stroke: #ffffff; stroke-linejoin: miter"/>
   </g>
   <g id="patch_11">
    <path d="M 155.127 294.996375 
L 163.6791 294.996375 
L 163.6791 271.943143 
L 155.127 271.943143 
z
" clip-path="url(#p11c27b318b)" style="fill: #481f70; stroke: #ffffff; stroke-linejoin: miter"/>
   </g>
   <g id="patch_12">
    <path d="M 163.6791 294.996375 
L 172.2312 294.996375 
L 172.2312 274.065608 
L 163.6791 274.065608 
z
" clip-path="url(#p11c27b318b)" style="fill: #481c6e; stroke: #ffffff; stroke-linejoin: miter"/>
   </g>
   <g id="patch_13">
    <path d="M 172.2312 294.996375 
L 180.7833 294.996375 
L 180.7833 280.498308 
L 172.2312 280.498308 
z
" clip-path="url(#p11c27b318b)" style="fill: #471365; stroke: #ffffff; stroke-linejoin: miter"/>
   </g>
   <g id="patch_14">
    <path d="M 180.7833 294.996375 
L 189.3354 294.996375 
L 189.3354 282.849346 
L 180.7833 282.849346 
z
" clip-path="url(#p11c27b318b)" style="fill: #471063; stroke: #ffffff; stroke-linejoin: miter"/>
   </g>
   <g id="patch_15">
    <path d="M 189.3354 294.996375 
L 197.8875 294.996375 
L 197.8875 282.00036 
L 189.3354 282.00036 
z
" clip-path="url(#p11c27b318b)" style="fill: #471164; stroke: #ffffff; stroke-linejoin: miter"/>
   </g>
   <g id="patch_16">
    <path d="M 197.8875 294.996375 
L 206.4396 294.996375 
L 206.4396 286.408556 
L 197.8875 286.408556 
z
" clip-path="url(#p11c27b318b)" style="fill: #460b5e; stroke: #ffffff; stroke-linejoin: miter"/>
   </g>
   <g id="patch_17">
    <path d="M 206.4396 294.996375 
L 214.9917 294.996375 
L 214.9917 284.155478 
L 206.4396 284.155478 
z
" clip-path="url(#p11c27b318b)" style="fill: #470e61; stroke: #ffffff; stroke-linejoin: miter"/>
   </g>
   <g id="patch_18">
    <path d="M 214.9917 294.996375 
L 223.5438 294.996375 
L 223.5438 288.955514 
L 214.9917 288.955514 
z
" clip-path="url(#p11c27b318b)" style="fill: #46075a; stroke: #ffffff; stroke-linejoin: miter"/>
   </g>
   <g id="patch_19">
    <path d="M 223.5438 294.996375 
L 232.0959 294.996375 
L 232.0959 289.673887 
L 223.5438 289.673887 
z
" clip-path="url(#p11c27b318b)" style="fill: #46075a; stroke: #ffffff; stroke-linejoin: miter"/>
   </g>
   <g id="patch_20">
    <path d="M 232.0959 294.996375 
L 240.648 294.996375 
L 240.648 288.008568 
L 232.0959 288.008568 
z
" clip-path="url(#p11c27b318b)" style="fill: #46085c; stroke: #ffffff; stroke-linejoin: miter"/>
   </g>
   <g id="patch_21">
    <path d="M 240.648 294.996375 
L 249.2001 294.996375 
L 249.2001 290.686139 
L 240.648 290.686139 
z
" clip-path="url(#p11c27b318b)" style="fill: #450559; stroke: #ffffff; stroke-linejoin: miter"/>
   </g>
   <g id="patch_22">
    <path d="M 249.2001 294.996375 
L 257.7522 294.996375 
L 257.7522 290.131033 
L 249.2001 290.131033 
z
" clip-path="url(#p11c27b318b)" style="fill: #450559; stroke: #ffffff; stroke-linejoin: miter"/>
   </g>
   <g id="patch_23">
    <path d="M 257.7522 294.996375 
L 266.3043 294.996375 
L 266.3043 290.849406 
L 257.7522 290.849406 
z
" clip-path="url(#p11c27b318b)" style="fill: #450559; stroke: #ffffff; stroke-linejoin: miter"/>
   </g>
   <g id="patch_24">
    <path d="M 266.3043 294.996375 
L 274.8564 294.996375 
L 274.8564 291.894311 
L 266.3043 291.894311 
z
" clip-path="url(#p11c27b318b)" style="fill: #450457; stroke: #ffffff; stroke-linejoin: miter"/>
   </g>
   <g id="patch_25">
    <path d="M 274.8564 294.996375 
L 283.4085 294.996375 
L 283.4085 291.012672 
L 274.8564 291.012672 
z
" clip-path="url(#p11c27b318b)" style="fill: #450457; stroke: #ffffff; stroke-linejoin: miter"/>
   </g>
   <g id="patch_26">
    <path d="M 283.4085 294.996375 
L 291.9606 294.996375 
L 291.9606 292.318804 
L 283.4085 292.318804 
z
" clip-path="url(#p11c27b318b)" style="fill: #440256; stroke: #ffffff; stroke-linejoin: miter"/>
   </g>
   <g id="patch_27">
    <path d="M 291.9606 294.996375 
L 300.5127 294.996375 
L 300.5127 292.024924 
L 291.9606 292.024924 
z
" clip-path="url(#p11c27b318b)" style="fill: #440256; stroke: #ffffff; stroke-linejoin: miter"/>
   </g>
   <g id="patch_28">
    <path d="M 300.5127 294.996375 
L 309.0648 294.996375 
L 309.0648 292.841257 
L 300.5127 292.841257 
z
" clip-path="url(#p11c27b318b)" style="fill: #440256; stroke: #ffffff; stroke-linejoin: miter"/>
   </g>
   <g id="patch_29">
    <path d="M 309.0648 294.996375 
L 317.6169 294.996375 
L 317.6169 292.710644 
L 309.0648 292.710644 
z
" clip-path="url(#p11c27b318b)" style="fill: #440256; stroke: #ffffff; stroke-linejoin: miter"/>
   </g>
   <g id="patch_30">
    <path d="M 317.6169 294.996375 
L 326.169 294.996375 
L 326.169 292.351457 
L 317.6169 292.351457 
z
" clip-path="url(#p11c27b318b)" style="fill: #440256; stroke: #ffffff; stroke-linejoin: miter"/>
   </g>
   <g id="patch_31">
    <path d="M 326.169 294.996375 
L 334.7211 294.996375 
L 334.7211 293.233097 
L 326.169 293.233097 
z
" clip-path="url(#p11c27b318b)" style="fill: #440154; stroke: #ffffff; stroke-linejoin: miter"/>
   </g>
   <g id="patch_32">
    <path d="M 334.7211 294.996375 
L 343.2732 294.996375 
L 343.2732 292.87391 
L 334.7211 292.87391 
z
" clip-path="url(#p11c27b318b)" style="fill: #440256; stroke: #ffffff; stroke-linejoin: miter"/>
   </g>
   <g id="patch_33">
    <path d="M 343.2732 294.996375 
L 351.8253 294.996375 
L 351.8253 293.624936 
L 343.2732 293.624936 
z
" clip-path="url(#p11c27b318b)" style="fill: #440154; stroke: #ffffff; stroke-linejoin: miter"/>
   </g>
   <g id="patch_34">
    <path d="M 351.8253 294.996375 
L 360.3774 294.996375 
L 360.3774 293.36371 
L 351.8253 293.36371 
z
" clip-path="url(#p11c27b318b)" style="fill: #440154; stroke: #ffffff; stroke-linejoin: miter"/>
   </g>
   <g id="patch_35">
    <path d="M 360.3774 294.996375 
L 368.9295 294.996375 
L 368.9295 293.722896 
L 360.3774 293.722896 
z
" clip-path="url(#p11c27b318b)" style="fill: #440154; stroke: #ffffff; stroke-linejoin: miter"/>
   </g>
   <g id="patch_36">
    <path d="M 368.9295 294.996375 
L 377.4816 294.996375 
L 377.4816 293.820856 
L 368.9295 293.820856 
z
" clip-path="url(#p11c27b318b)" style="fill: #440154; stroke: #ffffff; stroke-linejoin: miter"/>
   </g>
   <g id="patch_37">
    <path d="M 377.4816 294.996375 
L 386.0337 294.996375 
L 386.0337 293.331057 
L 377.4816 293.331057 
z
" clip-path="url(#p11c27b318b)" style="fill: #440154; stroke: #ffffff; stroke-linejoin: miter"/>
   </g>
   <g id="patch_38">
    <path d="M 386.0337 294.996375 
L 394.5858 294.996375 
L 394.5858 294.016776 
L 386.0337 294.016776 
z
" clip-path="url(#p11c27b318b)" style="fill: #440154; stroke: #ffffff; stroke-linejoin: miter"/>
   </g>
   <g id="patch_39">
    <path d="M 394.5858 294.996375 
L 403.1379 294.996375 
L 403.1379 294.016776 
L 394.5858 294.016776 
z
" clip-path="url(#p11c27b318b)" style="fill: #440154; stroke: #ffffff; stroke-linejoin: miter"/>
   </g>
   <g id="patch_40">
    <path d="M 403.1379 294.996375 
L 411.69 294.996375 
L 411.69 293.494323 
L 403.1379 293.494323 
z
" clip-path="url(#p11c27b318b)" style="fill: #440154; stroke: #ffffff; stroke-linejoin: miter"/>
   </g>
   <g id="patch_41">
    <path d="M 411.69 294.996375 
L 420.2421 294.996375 
L 420.2421 293.65759 
L 411.69 293.65759 
z
" clip-path="url(#p11c27b318b)" style="fill: #440154; stroke: #ffffff; stroke-linejoin: miter"/>
   </g>
   <g id="patch_42">
    <path d="M 420.2421 294.996375 
L 428.7942 294.996375 
L 428.7942 293.918816 
L 420.2421 293.918816 
z
" clip-path="url(#p11c27b318b)" style="fill: #440154; stroke: #ffffff; stroke-linejoin: miter"/>
   </g>
   <g id="patch_43">
    <path d="M 86.7102 294.996375 
L 90.13104 294.996375 
L 90.13104 294.996374 
L 86.7102 294.996374 
z
" clip-path="url(#p11c27b318b)" style="fill: #dd8452; stroke: #ffffff; stroke-linejoin: miter"/>
   </g>
   <g id="patch_44">
    <path d="M 90.13104 294.996375 
L 93.55188 294.996375 
L 93.55188 294.996374 
L 90.13104 294.996374 
z
" clip-path="url(#p11c27b318b)" style="fill: #dd8452; stroke: #ffffff; stroke-linejoin: miter"/>
   </g>
   <g id="patch_45">
    <path d="M 93.55188 294.996375 
L 96.97272 294.996375 
L 96.97272 294.99637 
L 93.55188 294.99637 
z
" clip-path="url(#p11c27b318b)" style="fill: #dd8452; stroke: #ffffff; stroke-linejoin: miter"/>
   </g>
   <g id="patch_46">
    <path d="M 96.97272 294.996375 
L 100.39356 294.996375 
L 100.39356 294.996362 
L 96.97272 294.996362 
z
" clip-path="url(#p11c27b318b)" style="fill: #dd8452; stroke: #ffffff; stroke-linejoin: miter"/>
   </g>
   <g id="patch_47">
    <path d="M 100.39356 294.996375 
L 103.8144 294.996375 
L 103.8144 294.996354 
L 100.39356 294.996354 
z
" clip-path="url(#p11c27b318b)" style="fill: #dd8452; stroke: #ffffff; stroke-linejoin: miter"/>
   </g>
   <g id="patch_48">
    <path d="M 103.8144 294.996375 
L 107.23524 294.996375 
L 107.23524 294.996355 
L 103.8144 294.996355 
z
" clip-path="url(#p11c27b318b)" style="fill: #dd8452; stroke: #ffffff; stroke-linejoin: miter"/>
   </g>
   <g id="patch_49">
    <path d="M 107.23524 294.996375 
L 110.65608 294.996375 
L 110.65608 294.996354 
L 107.23524 294.996354 
z
" clip-path="url(#p11c27b318b)" style="fill: #dd8452; stroke: #ffffff; stroke-linejoin: miter"/>
   </g>
   <g id="patch_50">
    <path d="M 110.65608 294.996375 
L 114.07692 294.996375 
L 114.07692 294.996359 
L 110.65608 294.996359 
z
" clip-path="url(#p11c27b318b)" style="fill: #dd8452; stroke: #ffffff; stroke-linejoin: miter"/>
   </g>
   <g id="patch_51">
    <path d="M 114.07692 294.996375 
L 117.49776 294.996375 
L 117.49776 294.996369 
L 114.07692 294.996369 
z
" clip-path="url(#p11c27b318b)" style="fill: #dd8452; stroke: #ffffff; stroke-linejoin: miter"/>
   </g>
   <g id="patch_52">
    <path d="M 117.49776 294.996375 
L 120.9186 294.996375 
L 120.9186 294.996365 
L 117.49776 294.996365 
z
" clip-path="url(#p11c27b318b)" style="fill: #dd8452; stroke: #ffffff; stroke-linejoin: miter"/>
   </g>
   <g id="patch_53">
    <path d="M 120.9186 294.996375 
L 124.33944 294.996375 
L 124.33944 294.996367 
L 120.9186 294.996367 
z
" clip-path="url(#p11c27b318b)" style="fill: #dd8452; stroke: #ffffff; stroke-linejoin: miter"/>
   </g>
   <g id="patch_54">
    <path d="M 124.33944 294.996375 
L 127.76028 294.996375 
L 127.76028 294.996368 
L 124.33944 294.996368 
z
" clip-path="url(#p11c27b318b)" style="fill: #dd8452; stroke: #ffffff; stroke-linejoin: miter"/>
   </g>
   <g id="patch_55">
    <path d="M 127.76028 294.996375 
L 131.18112 294.996375 
L 131.18112 294.996372 
L 127.76028 294.996372 
z
" clip-path="url(#p11c27b318b)" style="fill: #dd8452; stroke: #ffffff; stroke-linejoin: miter"/>
   </g>
   <g id="patch_56">
    <path d="M 131.18112 294.996375 
L 134.60196 294.996375 
L 134.60196 294.99637 
L 131.18112 294.99637 
z
" clip-path="url(#p11c27b318b)" style="fill: #dd8452; stroke: #ffffff; stroke-linejoin: miter"/>
   </g>
   <g id="patch_57">
    <path d="M 134.60196 294.996375 
L 138.0228 294.996375 
L 138.0228 294.996371 
L 134.60196 294.996371 
z
" clip-path="url(#p11c27b318b)" style="fill: #dd8452; stroke: #ffffff; stroke-linejoin: miter"/>
   </g>
   <g id="patch_58">
    <path d="M 138.0228 294.996375 
L 141.44364 294.996375 
L 141.44364 294.996371 
L 138.0228 294.996371 
z
" clip-path="url(#p11c27b318b)" style="fill: #dd8452; stroke: #ffffff; stroke-linejoin: miter"/>
   </g>
   <g id="patch_59">
    <path d="M 141.44364 294.996375 
L 144.86448 294.996375 
L 144.86448 294.996373 
L 141.44364 294.996373 
z
" clip-path="url(#p11c27b318b)" style="fill: #dd8452; stroke: #ffffff; stroke-linejoin: miter"/>
   </g>
   <g id="patch_60">
    <path d="M 144.86448 294.996375 
L 148.28532 294.996375 
L 148.28532 294.996372 
L 144.86448 294.996372 
z
" clip-path="url(#p11c27b318b)" style="fill: #dd8452; stroke: #ffffff; stroke-linejoin: miter"/>
   </g>
   <g id="patch_61">
    <path d="M 148.28532 294.996375 
L 151.70616 294.996375 
L 151.70616 294.996372 
L 148.28532 294.996372 
z
" clip-path="url(#p11c27b318b)" style="fill: #dd8452; stroke: #ffffff; stroke-linejoin: miter"/>
   </g>
   <g id="patch_62">
    <path d="M 151.70616 294.996375 
L 155.127 294.996375 
L 155.127 294.996373 
L 151.70616 294.996373 
z
" clip-path="url(#p11c27b318b)" style="fill: #dd8452; stroke: #ffffff; stroke-linejoin: miter"/>
   </g>
   <g id="patch_63">
    <path d="M 155.127 294.996375 
L 158.54784 294.996375 
L 158.54784 294.996374 
L 155.127 294.996374 
z
" clip-path="url(#p11c27b318b)" style="fill: #dd8452; stroke: #ffffff; stroke-linejoin: miter"/>
   </g>
   <g id="patch_64">
    <path d="M 158.54784 294.996375 
L 161.96868 294.996375 
L 161.96868 294.996373 
L 158.54784 294.996373 
z
" clip-path="url(#p11c27b318b)" style="fill: #dd8452; stroke: #ffffff; stroke-linejoin: miter"/>
   </g>
   <g id="patch_65">
    <path d="M 161.96868 294.996375 
L 165.38952 294.996375 
L 165.38952 294.996373 
L 161.96868 294.996373 
z
" clip-path="url(#p11c27b318b)" style="fill: #dd8452; stroke: #ffffff; stroke-linejoin: miter"/>
   </g>
   <g id="patch_66">
    <path d="M 165.38952 294.996375 
L 168.81036 294.996375 
L 168.81036 294.996373 
L 165.38952 294.996373 
z
" clip-path="url(#p11c27b318b)" style="fill: #dd8452; stroke: #ffffff; stroke-linejoin: miter"/>
   </g>
   <g id="patch_67">
    <path d="M 168.81036 294.996375 
L 172.2312 294.996375 
L 172.2312 294.996373 
L 168.81036 294.996373 
z
" clip-path="url(#p11c27b318b)" style="fill: #dd8452; stroke: #ffffff; stroke-linejoin: miter"/>
   </g>
   <g id="patch_68">
    <path d="M 172.2312 294.996375 
L 175.65204 294.996375 
L 175.65204 294.996374 
L 172.2312 294.996374 
z
" clip-path="url(#p11c27b318b)" style="fill: #dd8452; stroke: #ffffff; stroke-linejoin: miter"/>
   </g>
   <g id="patch_69">
    <path d="M 175.65204 294.996375 
L 179.07288 294.996375 
L 179.07288 294.996374 
L 175.65204 294.996374 
z
" clip-path="url(#p11c27b318b)" style="fill: #dd8452; stroke: #ffffff; stroke-linejoin: miter"/>
   </g>
   <g id="patch_70">
    <path d="M 179.07288 294.996375 
L 182.49372 294.996375 
L 182.49372 294.996374 
L 179.07288 294.996374 
z
" clip-path="url(#p11c27b318b)" style="fill: #dd8452; stroke: #ffffff; stroke-linejoin: miter"/>
   </g>
   <g id="patch_71">
    <path d="M 182.49372 294.996375 
L 185.91456 294.996375 
L 185.91456 294.996374 
L 182.49372 294.996374 
z
" clip-path="url(#p11c27b318b)" style="fill: #dd8452; stroke: #ffffff; stroke-linejoin: miter"/>
   </g>
   <g id="patch_72">
    <path d="M 185.91456 294.996375 
L 189.3354 294.996375 
L 189.3354 294.996374 
L 185.91456 294.996374 
z
" clip-path="url(#p11c27b318b)" style="fill: #dd8452; stroke: #ffffff; stroke-linejoin: miter"/>
   </g>
   <g id="patch_73">
    <path d="M 189.3354 294.996375 
L 192.75624 294.996375 
L 192.75624 294.996374 
L 189.3354 294.996374 
z
" clip-path="url(#p11c27b318b)" style="fill: #dd8452; stroke: #ffffff; stroke-linejoin: miter"/>
   </g>
   <g id="patch_74">
    <path d="M 192.75624 294.996375 
L 196.17708 294.996375 
L 196.17708 294.996374 
L 192.75624 294.996374 
z
" clip-path="url(#p11c27b318b)" style="fill: #dd8452; stroke: #ffffff; stroke-linejoin: miter"/>
   </g>
   <g id="patch_75">
    <path d="M 196.17708 294.996375 
L 199.59792 294.996375 
L 199.59792 294.996374 
L 196.17708 294.996374 
z
" clip-path="url(#p11c27b318b)" style="fill: #dd8452; stroke: #ffffff; stroke-linejoin: miter"/>
   </g>
   <g id="patch_76">
    <path d="M 199.59792 294.996375 
L 203.01876 294.996375 
L 203.01876 294.996375 
L 199.59792 294.996375 
z
" clip-path="url(#p11c27b318b)" style="fill: #dd8452; stroke: #ffffff; stroke-linejoin: miter"/>
   </g>
   <g id="patch_77">
    <path d="M 203.01876 294.996375 
L 206.4396 294.996375 
L 206.4396 294.996374 
L 203.01876 294.996374 
z
" clip-path="url(#p11c27b318b)" style="fill: #dd8452; stroke: #ffffff; stroke-linejoin: miter"/>
   </g>
   <g id="patch_78">
    <path d="M 206.4396 294.996375 
L 209.86044 294.996375 
L 209.86044 294.996374 
L 206.4396 294.996374 
z
" clip-path="url(#p11c27b318b)" style="fill: #dd8452; stroke: #ffffff; stroke-linejoin: miter"/>
   </g>
   <g id="patch_79">
    <path d="M 209.86044 294.996375 
L 213.28128 294.996375 
L 213.28128 294.996374 
L 209.86044 294.996374 
z
" clip-path="url(#p11c27b318b)" style="fill: #dd8452; stroke: #ffffff; stroke-linejoin: miter"/>
   </g>
   <g id="patch_80">
    <path d="M 213.28128 294.996375 
L 216.70212 294.996375 
L 216.70212 294.996375 
L 213.28128 294.996375 
z
" clip-path="url(#p11c27b318b)" style="fill: #dd8452; stroke: #ffffff; stroke-linejoin: miter"/>
   </g>
   <g id="patch_81">
    <path d="M 216.70212 294.996375 
L 220.12296 294.996375 
L 220.12296 294.996374 
L 216.70212 294.996374 
z
" clip-path="url(#p11c27b318b)" style="fill: #dd8452; stroke: #ffffff; stroke-linejoin: miter"/>
   </g>
   <g id="patch_82">
    <path d="M 220.12296 294.996375 
L 223.5438 294.996375 
L 223.5438 294.996375 
L 220.12296 294.996375 
z
" clip-path="url(#p11c27b318b)" style="fill: #dd8452; stroke: #ffffff; stroke-linejoin: miter"/>
   </g>
   <g id="patch_83">
    <path d="M 223.5438 294.996375 
L 226.96464 294.996375 
L 226.96464 294.996375 
L 223.5438 294.996375 
z
" clip-path="url(#p11c27b318b)" style="fill: #dd8452; stroke: #ffffff; stroke-linejoin: miter"/>
   </g>
   <g id="patch_84">
    <path d="M 226.96464 294.996375 
L 230.38548 294.996375 
L 230.38548 294.996375 
L 226.96464 294.996375 
z
" clip-path="url(#p11c27b318b)" style="fill: #dd8452; stroke: #ffffff; stroke-linejoin: miter"/>
   </g>
   <g id="patch_85">
    <path d="M 230.38548 294.996375 
L 233.80632 294.996375 
L 233.80632 294.996375 
L 230.38548 294.996375 
z
" clip-path="url(#p11c27b318b)" style="fill: #dd8452; stroke: #ffffff; stroke-linejoin: miter"/>
   </g>
   <g id="patch_86">
    <path d="M 233.80632 294.996375 
L 237.22716 294.996375 
L 237.22716 294.996374 
L 233.80632 294.996374 
z
" clip-path="url(#p11c27b318b)" style="fill: #dd8452; stroke: #ffffff; stroke-linejoin: miter"/>
   </g>
   <g id="patch_87">
    <path d="M 237.22716 294.996375 
L 240.648 294.996375 
L 240.648 294.996374 
L 237.22716 294.996374 
z
" clip-path="url(#p11c27b318b)" style="fill: #dd8452; stroke: #ffffff; stroke-linejoin: miter"/>
   </g>
   <g id="patch_88">
    <path d="M 240.648 294.996375 
L 244.06884 294.996375 
L 244.06884 294.996375 
L 240.648 294.996375 
z
" clip-path="url(#p11c27b318b)" style="fill: #dd8452; stroke: #ffffff; stroke-linejoin: miter"/>
   </g>
   <g id="patch_89">
    <path d="M 244.06884 294.996375 
L 247.48968 294.996375 
L 247.48968 294.996375 
L 244.06884 294.996375 
z
" clip-path="url(#p11c27b318b)" style="fill: #dd8452; stroke: #ffffff; stroke-linejoin: miter"/>
   </g>
   <g id="patch_90">
    <path d="M 247.48968 294.996375 
L 250.91052 294.996375 
L 250.91052 294.996375 
L 247.48968 294.996375 
z
" clip-path="url(#p11c27b318b)" style="fill: #dd8452; stroke: #ffffff; stroke-linejoin: miter"/>
   </g>
   <g id="patch_91">
    <path d="M 250.91052 294.996375 
L 254.33136 294.996375 
L 254.33136 294.996375 
L 250.91052 294.996375 
z
" clip-path="url(#p11c27b318b)" style="fill: #dd8452; stroke: #ffffff; stroke-linejoin: miter"/>
   </g>
   <g id="patch_92">
    <path d="M 254.33136 294.996375 
L 257.7522 294.996375 
L 257.7522 294.996375 
L 254.33136 294.996375 
z
" clip-path="url(#p11c27b318b)" style="fill: #dd8452; stroke: #ffffff; stroke-linejoin: miter"/>
   </g>
   <g id="patch_93">
    <path d="M 257.7522 294.996375 
L 261.17304 294.996375 
L 261.17304 294.996375 
L 257.7522 294.996375 
z
" clip-path="url(#p11c27b318b)" style="fill: #dd8452; stroke: #ffffff; stroke-linejoin: miter"/>
   </g>
   <g id="patch_94">
    <path d="M 261.17304 294.996375 
L 264.59388 294.996375 
L 264.59388 294.996375 
L 261.17304 294.996375 
z
" clip-path="url(#p11c27b318b)" style="fill: #dd8452; stroke: #ffffff; stroke-linejoin: miter"/>
   </g>
   <g id="patch_95">
    <path d="M 264.59388 294.996375 
L 268.01472 294.996375 
L 268.01472 294.996375 
L 264.59388 294.996375 
z
" clip-path="url(#p11c27b318b)" style="fill: #dd8452; stroke: #ffffff; stroke-linejoin: miter"/>
   </g>
   <g id="patch_96">
    <path d="M 268.01472 294.996375 
L 271.43556 294.996375 
L 271.43556 294.996375 
L 268.01472 294.996375 
z
" clip-path="url(#p11c27b318b)" style="fill: #dd8452; stroke: #ffffff; stroke-linejoin: miter"/>
   </g>
   <g id="patch_97">
    <path d="M 271.43556 294.996375 
L 274.8564 294.996375 
L 274.8564 294.996375 
L 271.43556 294.996375 
z
" clip-path="url(#p11c27b318b)" style="fill: #dd8452; stroke: #ffffff; stroke-linejoin: miter"/>
   </g>
   <g id="patch_98">
    <path d="M 274.8564 294.996375 
L 278.27724 294.996375 
L 278.27724 294.996375 
L 274.8564 294.996375 
z
" clip-path="url(#p11c27b318b)" style="fill: #dd8452; stroke: #ffffff; stroke-linejoin: miter"/>
   </g>
   <g id="patch_99">
    <path d="M 278.27724 294.996375 
L 281.69808 294.996375 
L 281.69808 294.996375 
L 278.27724 294.996375 
z
" clip-path="url(#p11c27b318b)" style="fill: #dd8452; stroke: #ffffff; stroke-linejoin: miter"/>
   </g>
   <g id="patch_100">
    <path d="M 281.69808 294.996375 
L 285.11892 294.996375 
L 285.11892 294.996375 
L 281.69808 294.996375 
z
" clip-path="url(#p11c27b318b)" style="fill: #dd8452; stroke: #ffffff; stroke-linejoin: miter"/>
   </g>
   <g id="patch_101">
    <path d="M 285.11892 294.996375 
L 288.53976 294.996375 
L 288.53976 294.996375 
L 285.11892 294.996375 
z
" clip-path="url(#p11c27b318b)" style="fill: #dd8452; stroke: #ffffff; stroke-linejoin: miter"/>
   </g>
   <g id="patch_102">
    <path d="M 288.53976 294.996375 
L 291.9606 294.996375 
L 291.9606 294.996375 
L 288.53976 294.996375 
z
" clip-path="url(#p11c27b318b)" style="fill: #dd8452; stroke: #ffffff; stroke-linejoin: miter"/>
   </g>
   <g id="patch_103">
    <path d="M 291.9606 294.996375 
L 295.38144 294.996375 
L 295.38144 294.996375 
L 291.9606 294.996375 
z
" clip-path="url(#p11c27b318b)" style="fill: #dd8452; stroke: #ffffff; stroke-linejoin: miter"/>
   </g>
   <g id="patch_104">
    <path d="M 295.38144 294.996375 
L 298.80228 294.996375 
L 298.80228 294.996375 
L 295.38144 294.996375 
z
" clip-path="url(#p11c27b318b)" style="fill: #dd8452; stroke: #ffffff; stroke-linejoin: miter"/>
   </g>
   <g id="patch_105">
    <path d="M 298.80228 294.996375 
L 302.22312 294.996375 
L 302.22312 294.996375 
L 298.80228 294.996375 
z
" clip-path="url(#p11c27b318b)" style="fill: #dd8452; stroke: #ffffff; stroke-linejoin: miter"/>
   </g>
   <g id="patch_106">
    <path d="M 302.22312 294.996375 
L 305.64396 294.996375 
L 305.64396 294.996375 
L 302.22312 294.996375 
z
" clip-path="url(#p11c27b318b)" style="fill: #dd8452; stroke: #ffffff; stroke-linejoin: miter"/>
   </g>
   <g id="patch_107">
    <path d="M 305.64396 294.996375 
L 309.0648 294.996375 
L 309.0648 294.996375 
L 305.64396 294.996375 
z
" clip-path="url(#p11c27b318b)" style="fill: #dd8452; stroke: #ffffff; stroke-linejoin: miter"/>
   </g>
   <g id="patch_108">
    <path d="M 309.0648 294.996375 
L 312.48564 294.996375 
L 312.48564 294.996375 
L 309.0648 294.996375 
z
" clip-path="url(#p11c27b318b)" style="fill: #dd8452; stroke: #ffffff; stroke-linejoin: miter"/>
   </g>
   <g id="patch_109">
    <path d="M 312.48564 294.996375 
L 315.90648 294.996375 
L 315.90648 294.996375 
L 312.48564 294.996375 
z
" clip-path="url(#p11c27b318b)" style="fill: #dd8452; stroke: #ffffff; stroke-linejoin: miter"/>
   </g>
   <g id="patch_110">
    <path d="M 315.90648 294.996375 
L 319.32732 294.996375 
L 319.32732 294.996375 
L 315.90648 294.996375 
z
" clip-path="url(#p11c27b318b)" style="fill: #dd8452; stroke: #ffffff; stroke-linejoin: miter"/>
   </g>
   <g id="patch_111">
    <path d="M 319.32732 294.996375 
L 322.74816 294.996375 
L 322.74816 294.996375 
L 319.32732 294.996375 
z
" clip-path="url(#p11c27b318b)" style="fill: #dd8452; stroke: #ffffff; stroke-linejoin: miter"/>
   </g>
   <g id="patch_112">
    <path d="M 322.74816 294.996375 
L 326.169 294.996375 
L 326.169 294.996375 
L 322.74816 294.996375 
z
" clip-path="url(#p11c27b318b)" style="fill: #dd8452; stroke: #ffffff; stroke-linejoin: miter"/>
   </g>
   <g id="patch_113">
    <path d="M 326.169 294.996375 
L 329.58984 294.996375 
L 329.58984 294.996375 
L 326.169 294.996375 
z
" clip-path="url(#p11c27b318b)" style="fill: #dd8452; stroke: #ffffff; stroke-linejoin: miter"/>
   </g>
   <g id="patch_114">
    <path d="M 329.58984 294.996375 
L 333.01068 294.996375 
L 333.01068 294.996375 
L 329.58984 294.996375 
z
" clip-path="url(#p11c27b318b)" style="fill: #dd8452; stroke: #ffffff; stroke-linejoin: miter"/>
   </g>
   <g id="patch_115">
    <path d="M 333.01068 294.996375 
L 336.43152 294.996375 
L 336.43152 294.996375 
L 333.01068 294.996375 
z
" clip-path="url(#p11c27b318b)" style="fill: #dd8452; stroke: #ffffff; stroke-linejoin: miter"/>
   </g>
   <g id="patch_116">
    <path d="M 336.43152 294.996375 
L 339.85236 294.996375 
L 339.85236 294.996375 
L 336.43152 294.996375 
z
" clip-path="url(#p11c27b318b)" style="fill: #dd8452; stroke: #ffffff; stroke-linejoin: miter"/>
   </g>
   <g id="patch_117">
    <path d="M 339.85236 294.996375 
L 343.2732 294.996375 
L 343.2732 294.996375 
L 339.85236 294.996375 
z
" clip-path="url(#p11c27b318b)" style="fill: #dd8452; stroke: #ffffff; stroke-linejoin: miter"/>
   </g>
   <g id="patch_118">
    <path d="M 343.2732 294.996375 
L 346.69404 294.996375 
L 346.69404 294.996375 
L 343.2732 294.996375 
z
" clip-path="url(#p11c27b318b)" style="fill: #dd8452; stroke: #ffffff; stroke-linejoin: miter"/>
   </g>
   <g id="patch_119">
    <path d="M 346.69404 294.996375 
L 350.11488 294.996375 
L 350.11488 294.996375 
L 346.69404 294.996375 
z
" clip-path="url(#p11c27b318b)" style="fill: #dd8452; stroke: #ffffff; stroke-linejoin: miter"/>
   </g>
   <g id="patch_120">
    <path d="M 350.11488 294.996375 
L 353.53572 294.996375 
L 353.53572 294.996375 
L 350.11488 294.996375 
z
" clip-path="url(#p11c27b318b)" style="fill: #dd8452; stroke: #ffffff; stroke-linejoin: miter"/>
   </g>
   <g id="patch_121">
    <path d="M 353.53572 294.996375 
L 356.95656 294.996375 
L 356.95656 294.996375 
L 353.53572 294.996375 
z
" clip-path="url(#p11c27b318b)" style="fill: #dd8452; stroke: #ffffff; stroke-linejoin: miter"/>
   </g>
   <g id="patch_122">
    <path d="M 356.95656 294.996375 
L 360.3774 294.996375 
L 360.3774 294.996375 
L 356.95656 294.996375 
z
" clip-path="url(#p11c27b318b)" style="fill: #dd8452; stroke: #ffffff; stroke-linejoin: miter"/>
   </g>
   <g id="patch_123">
    <path d="M 360.3774 294.996375 
L 363.79824 294.996375 
L 363.79824 294.996375 
L 360.3774 294.996375 
z
" clip-path="url(#p11c27b318b)" style="fill: #dd8452; stroke: #ffffff; stroke-linejoin: miter"/>
   </g>
   <g id="patch_124">
    <path d="M 363.79824 294.996375 
L 367.21908 294.996375 
L 367.21908 294.996375 
L 363.79824 294.996375 
z
" clip-path="url(#p11c27b318b)" style="fill: #dd8452; stroke: #ffffff; stroke-linejoin: miter"/>
   </g>
   <g id="patch_125">
    <path d="M 367.21908 294.996375 
L 370.63992 294.996375 
L 370.63992 294.996375 
L 367.21908 294.996375 
z
" clip-path="url(#p11c27b318b)" style="fill: #dd8452; stroke: #ffffff; stroke-linejoin: miter"/>
   </g>
   <g id="patch_126">
    <path d="M 370.63992 294.996375 
L 374.06076 294.996375 
L 374.06076 294.996375 
L 370.63992 294.996375 
z
" clip-path="url(#p11c27b318b)" style="fill: #dd8452; stroke: #ffffff; stroke-linejoin: miter"/>
   </g>
   <g id="patch_127">
    <path d="M 374.06076 294.996375 
L 377.4816 294.996375 
L 377.4816 294.996375 
L 374.06076 294.996375 
z
" clip-path="url(#p11c27b318b)" style="fill: #dd8452; stroke: #ffffff; stroke-linejoin: miter"/>
   </g>
   <g id="patch_128">
    <path d="M 377.4816 294.996375 
L 380.90244 294.996375 
L 380.90244 294.996375 
L 377.4816 294.996375 
z
" clip-path="url(#p11c27b318b)" style="fill: #dd8452; stroke: #ffffff; stroke-linejoin: miter"/>
   </g>
   <g id="patch_129">
    <path d="M 380.90244 294.996375 
L 384.32328 294.996375 
L 384.32328 294.996375 
L 380.90244 294.996375 
z
" clip-path="url(#p11c27b318b)" style="fill: #dd8452; stroke: #ffffff; stroke-linejoin: miter"/>
   </g>
   <g id="patch_130">
    <path d="M 384.32328 294.996375 
L 387.74412 294.996375 
L 387.74412 294.996375 
L 384.32328 294.996375 
z
" clip-path="url(#p11c27b318b)" style="fill: #dd8452; stroke: #ffffff; stroke-linejoin: miter"/>
   </g>
   <g id="patch_131">
    <path d="M 387.74412 294.996375 
L 391.16496 294.996375 
L 391.16496 294.996375 
L 387.74412 294.996375 
z
" clip-path="url(#p11c27b318b)" style="fill: #dd8452; stroke: #ffffff; stroke-linejoin: miter"/>
   </g>
   <g id="patch_132">
    <path d="M 391.16496 294.996375 
L 394.5858 294.996375 
L 394.5858 294.996375 
L 391.16496 294.996375 
z
" clip-path="url(#p11c27b318b)" style="fill: #dd8452; stroke: #ffffff; stroke-linejoin: miter"/>
   </g>
   <g id="patch_133">
    <path d="M 394.5858 294.996375 
L 398.00664 294.996375 
L 398.00664 294.996375 
L 394.5858 294.996375 
z
" clip-path="url(#p11c27b318b)" style="fill: #dd8452; stroke: #ffffff; stroke-linejoin: miter"/>
   </g>
   <g id="patch_134">
    <path d="M 398.00664 294.996375 
L 401.42748 294.996375 
L 401.42748 294.996375 
L 398.00664 294.996375 
z
" clip-path="url(#p11c27b318b)" style="fill: #dd8452; stroke: #ffffff; stroke-linejoin: miter"/>
   </g>
   <g id="patch_135">
    <path d="M 401.42748 294.996375 
L 404.84832 294.996375 
L 404.84832 294.996375 
L 401.42748 294.996375 
z
" clip-path="url(#p11c27b318b)" style="fill: #dd8452; stroke: #ffffff; stroke-linejoin: miter"/>
   </g>
   <g id="patch_136">
    <path d="M 404.84832 294.996375 
L 408.26916 294.996375 
L 408.26916 294.996375 
L 404.84832 294.996375 
z
" clip-path="url(#p11c27b318b)" style="fill: #dd8452; stroke: #ffffff; stroke-linejoin: miter"/>
   </g>
   <g id="patch_137">
    <path d="M 408.26916 294.996375 
L 411.69 294.996375 
L 411.69 294.996375 
L 408.26916 294.996375 
z
" clip-path="url(#p11c27b318b)" style="fill: #dd8452; stroke: #ffffff; stroke-linejoin: miter"/>
   </g>
   <g id="patch_138">
    <path d="M 411.69 294.996375 
L 415.11084 294.996375 
L 415.11084 294.996375 
L 411.69 294.996375 
z
" clip-path="url(#p11c27b318b)" style="fill: #dd8452; stroke: #ffffff; stroke-linejoin: miter"/>
   </g>
   <g id="patch_139">
    <path d="M 415.11084 294.996375 
L 418.53168 294.996375 
L 418.53168 294.996375 
L 415.11084 294.996375 
z
" clip-path="url(#p11c27b318b)" style="fill: #dd8452; stroke: #ffffff; stroke-linejoin: miter"/>
   </g>
   <g id="patch_140">
    <path d="M 418.53168 294.996375 
L 421.95252 294.996375 
L 421.95252 294.996375 
L 418.53168 294.996375 
z
" clip-path="url(#p11c27b318b)" style="fill: #dd8452; stroke: #ffffff; stroke-linejoin: miter"/>
   </g>
   <g id="patch_141">
    <path d="M 421.95252 294.996375 
L 425.37336 294.996375 
L 425.37336 294.996375 
L 421.95252 294.996375 
z
" clip-path="url(#p11c27b318b)" style="fill: #dd8452; stroke: #ffffff; stroke-linejoin: miter"/>
   </g>
   <g id="patch_142">
    <path d="M 425.37336 294.996375 
L 428.7942 294.996375 
L 428.7942 294.996375 
L 425.37336 294.996375 
z
" clip-path="url(#p11c27b318b)" style="fill: #dd8452; stroke: #ffffff; stroke-linejoin: miter"/>
   </g>
   <g id="patch_143">
    <path d="M 69.606 294.996375 
L 69.606 12.96 
" style="fill: none; stroke: #cccccc; stroke-width: 1.25; stroke-linejoin: miter; stroke-linecap: square"/>
   </g>
   <g id="patch_144">
    <path d="M 445.8984 294.996375 
L 445.8984 12.96 
" style="fill: none; stroke: #cccccc; stroke-width: 1.25; stroke-linejoin: miter; stroke-linecap: square"/>
   </g>
   <g id="patch_145">
    <path d="M 69.606 294.996375 
L 445.8984 294.996375 
" style="fill: none; stroke: #cccccc; stroke-width: 1.25; stroke-linejoin: miter; stroke-linecap: square"/>
   </g>
   <g id="patch_146">
    <path d="M 69.606 12.96 
L 445.8984 12.96 
" style="fill: none; stroke: #cccccc; stroke-width: 1.25; stroke-linejoin: miter; stroke-linecap: square"/>
   </g>
  </g>
 </g>
 <defs>
  <clipPath id="p11c27b318b">
   <rect x="69.606" y="12.96" width="376.2924" height="282.036375"/>
  </clipPath>
 </defs>
</svg>
